# xmcd CD database file
#
# Track frame offsets:
#	150
#	18275
#	35552
#	52650
#	68515
#	90602
#	98190
#	114492
#	125850
#	144912
#
# Disc length: 2159 seconds
#
# Revision: 0
# Processed by: cddbd v1.5.1PL0 Copyright (c) Steve Scherf et al.
# Submitted via: CDex 1.51
#
DISCID=7b086d0a
DTITLE=john bongiovi - the best of john bongiovi 1980-1983
DYEAR=1900
DGENRE=Jazz
TTITLE0=who said it would last forever
TTITLE1=more than we banrgained for
TTITLE2=stringin' a line
TTITLE3=all talk no action
TTITLE4=don't leave me tonight
TTITLE5=bobby's girl
TTITLE6=what you want
TTITLE7=gimme some lovin' charlene
TTITLE8=no one does it like you
TTITLE9=don't do that to me anymore
EXTD=
EXTT0=
EXTT1=
EXTT2=
EXTT3=
EXTT4=
EXTT5=
EXTT6=
EXTT7=
EXTT8=
EXTT9=
PLAYORDER=
